<?xml version="1.0" encoding="UTF-8"?>
<svg id="f" data-name="ripple cuts" xmlns="http://www.w3.org/2000/svg" viewBox="0 0 647 1101">
  <path d="m141.21,873.83c-25.46,5.63-51.66,8.63-77.91,8.75-32.93.18-61.57-25.15-63.22-58-1.77-35.24,26.26-64.36,61.14-64.36,18.05,0,36.05-1.96,53.43-5.81,110.9-24.66,191.38-125.12,191.38-238.92,0-134.6-109.31-244.18-243.83-244.73-32.93-.12-61.02-26.12-62.12-59.04-1.16-34.75,26.68-63.32,61.14-63.32,66.77,0,129.51,17.93,183.49,49.19,13.95,8.08,31.15,8.01,45.23.18l3.8-2.14c31.27-17.38,31.89-62.16,1.1-80.33-.12-.06-.24-.12-.37-.18-28.83-16.83-40.76-53.6-24.85-82.96,16.46-30.47,54.72-41.11,84.52-23.92,180.61,104.44,292.86,298.82,292.86,507.2,0,321.88-261.15,583.93-582.72,585.58-33.17.18-62.31-24.54-64.14-57.64-2.02-35.42,26.13-64.73,61.08-64.73,66.41,0,129.57-14.07,186.67-39.34,33.23-14.68,38.13-59.96,9.24-81.98-13.83-10.59-32.38-12.91-48.29-5.87-21.48,9.54-44.07,17.07-67.57,22.27l-.06.12Z" stroke="#1b1917"/>
</svg>